<svg width="34" height="30" viewBox="0 0 34 30" fill="none" xmlns="http://www.w3.org/2000/svg">
            <path d="M16.75 15.2988H13.25C12.1454 15.2988 11.25 14.4034 11.25 13.2988V2.79883C11.25 1.69426 12.1454 0.798828 13.25 0.798828H19.5L23.75 5.04883V7.29883" stroke="#DA0175" stroke-width="1.5" stroke-linecap="round" stroke-linejoin="round" />
            <path d="M22.5 10.7988V15.2988" stroke="#DA0175" stroke-width="1.5" stroke-linecap="round" stroke-linejoin="round" />
            <path d="M24.75 13.0488H20.25" stroke="#DA0175" stroke-width="1.5" stroke-linecap="round" stroke-linejoin="round" />
            <path d="M23.5 5.29883H19.25V1.04883" stroke="#DA0175" stroke-width="1.5" stroke-linecap="round" stroke-linejoin="round" />
            <path d="M3.112 28.1128C2.57333 28.1128 2.104 27.9982 1.704 27.7688C1.304 27.5342 0.997333 27.2008 0.784 26.7688C0.570667 26.3315 0.464 25.8168 0.464 25.2248C0.464 24.6382 0.570667 24.1288 0.784 23.6968C0.997333 23.2595 1.304 22.9262 1.704 22.6968C2.104 22.4622 2.57333 22.3448 3.112 22.3448C3.464 22.3448 3.79733 22.4008 4.112 22.5128C4.42667 22.6195 4.70133 22.7768 4.936 22.9848C5.03733 23.0648 5.088 23.1715 5.088 23.3048C5.088 23.4008 5.06133 23.4835 5.008 23.5528C4.95467 23.6168 4.89067 23.6488 4.816 23.6488C4.72533 23.6488 4.63733 23.6142 4.552 23.5448C4.296 23.3528 4.06133 23.2195 3.848 23.1448C3.64 23.0648 3.40267 23.0248 3.136 23.0248C2.54933 23.0248 2.09867 23.2142 1.784 23.5928C1.46933 23.9715 1.312 24.5155 1.312 25.2248C1.312 25.9395 1.46933 26.4862 1.784 26.8648C2.09867 27.2435 2.54933 27.4328 3.136 27.4328C3.392 27.4328 3.624 27.3928 3.832 27.3128C4.04533 27.2328 4.28533 27.0995 4.552 26.9128C4.65867 26.8435 4.74667 26.8088 4.816 26.8088C4.89067 26.8088 4.95467 26.8435 5.008 26.9128C5.06133 26.9768 5.088 27.0568 5.088 27.1528C5.088 27.2862 5.03733 27.3928 4.936 27.4728C4.70133 27.6808 4.42667 27.8408 4.112 27.9528C3.79733 28.0595 3.464 28.1128 3.112 28.1128ZM7.59194 28.1048C7.20794 28.1048 6.86927 28.0222 6.57594 27.8568C6.28794 27.6915 6.06394 27.4568 5.90394 27.1528C5.74927 26.8435 5.67194 26.4862 5.67194 26.0808C5.67194 25.6702 5.74927 25.3128 5.90394 25.0088C6.06394 24.6995 6.28794 24.4622 6.57594 24.2968C6.86927 24.1315 7.20794 24.0488 7.59194 24.0488C7.97594 24.0488 8.31194 24.1315 8.59994 24.2968C8.89327 24.4622 9.11727 24.6995 9.27194 25.0088C9.43194 25.3128 9.51194 25.6702 9.51194 26.0808C9.51194 26.4862 9.43194 26.8435 9.27194 27.1528C9.11727 27.4568 8.89327 27.6915 8.59994 27.8568C8.31194 28.0222 7.97594 28.1048 7.59194 28.1048ZM7.59194 27.4648C7.94927 27.4648 8.22127 27.3475 8.40794 27.1128C8.59994 26.8782 8.69594 26.5342 8.69594 26.0808C8.69594 25.6328 8.59994 25.2915 8.40794 25.0568C8.21594 24.8168 7.94394 24.6968 7.59194 24.6968C7.23994 24.6968 6.96794 24.8168 6.77594 25.0568C6.58394 25.2915 6.48794 25.6328 6.48794 26.0808C6.48794 26.5342 6.58127 26.8782 6.76794 27.1128C6.95994 27.3475 7.2346 27.4648 7.59194 27.4648ZM12.5076 24.0488C12.8489 24.0488 13.1502 24.1315 13.4116 24.2968C13.6729 24.4622 13.8756 24.6968 14.0196 25.0008C14.1689 25.3048 14.2436 25.6595 14.2436 26.0648C14.2436 26.4648 14.1689 26.8195 14.0196 27.1288C13.8756 27.4382 13.6702 27.6782 13.4036 27.8488C13.1422 28.0195 12.8436 28.1048 12.5076 28.1048C12.2142 28.1048 11.9556 28.0435 11.7316 27.9208C11.5076 27.7928 11.3369 27.6115 11.2196 27.3768V27.6968C11.2196 27.8142 11.1822 27.9102 11.1076 27.9848C11.0382 28.0542 10.9422 28.0888 10.8196 28.0888C10.6969 28.0888 10.5982 28.0542 10.5236 27.9848C10.4489 27.9102 10.4116 27.8142 10.4116 27.6968V22.7528C10.4116 22.6355 10.4489 22.5422 10.5236 22.4728C10.6036 22.4035 10.7049 22.3688 10.8276 22.3688C10.9449 22.3688 11.0382 22.4035 11.1076 22.4728C11.1822 22.5368 11.2196 22.6248 11.2196 22.7368V24.7848C11.3369 24.5502 11.5076 24.3688 11.7316 24.2408C11.9556 24.1128 12.2142 24.0488 12.5076 24.0488ZM12.3156 27.4648C12.6622 27.4648 12.9316 27.3422 13.1236 27.0968C13.3209 26.8515 13.4196 26.5075 13.4196 26.0648C13.4196 25.6275 13.3236 25.2915 13.1316 25.0568C12.9396 24.8168 12.6676 24.6968 12.3156 24.6968C11.9636 24.6968 11.6916 24.8168 11.4996 25.0568C11.3129 25.2968 11.2196 25.6382 11.2196 26.0808C11.2196 26.5235 11.3129 26.8648 11.4996 27.1048C11.6916 27.3448 11.9636 27.4648 12.3156 27.4648ZM17.1861 24.0648C17.4421 24.0488 17.5701 24.1582 17.5701 24.3928C17.5701 24.5102 17.5408 24.5982 17.4821 24.6568C17.4235 24.7155 17.3221 24.7502 17.1781 24.7608L16.9381 24.7848C16.6021 24.8168 16.3515 24.9342 16.1861 25.1368C16.0261 25.3395 15.9461 25.5848 15.9461 25.8728V27.7048C15.9461 27.8328 15.9088 27.9288 15.8341 27.9928C15.7595 28.0568 15.6635 28.0888 15.5461 28.0888C15.4288 28.0888 15.3301 28.0568 15.2501 27.9928C15.1755 27.9288 15.1381 27.8328 15.1381 27.7048V24.4488C15.1381 24.3262 15.1755 24.2328 15.2501 24.1688C15.3301 24.0995 15.4288 24.0648 15.5461 24.0648C15.6528 24.0648 15.7408 24.0995 15.8101 24.1688C15.8848 24.2328 15.9221 24.3235 15.9221 24.4408V24.8248C16.0288 24.5902 16.1835 24.4115 16.3861 24.2888C16.5888 24.1662 16.8181 24.0942 17.0741 24.0728L17.1861 24.0648ZM19.6844 24.0488C20.2017 24.0488 20.5857 24.1795 20.8364 24.4408C21.0924 24.7022 21.2204 25.0995 21.2204 25.6328V27.7048C21.2204 27.8275 21.1857 27.9235 21.1164 27.9928C21.047 28.0568 20.951 28.0888 20.8284 28.0888C20.711 28.0888 20.6177 28.0542 20.5484 27.9848C20.479 27.9155 20.4444 27.8222 20.4444 27.7048V27.4088C20.343 27.6328 20.191 27.8062 19.9884 27.9288C19.791 28.0462 19.559 28.1048 19.2924 28.1048C19.0364 28.1048 18.8017 28.0542 18.5884 27.9528C18.3804 27.8462 18.215 27.7022 18.0924 27.5208C17.9697 27.3395 17.9084 27.1342 17.9084 26.9048C17.903 26.6168 17.975 26.3928 18.1244 26.2328C18.2737 26.0675 18.5164 25.9502 18.8524 25.8808C19.1884 25.8062 19.655 25.7688 20.2524 25.7688H20.4364V25.5368C20.4364 25.2382 20.375 25.0222 20.2524 24.8888C20.1297 24.7555 19.9324 24.6888 19.6604 24.6888C19.4737 24.6888 19.2977 24.7128 19.1324 24.7608C18.967 24.8088 18.7857 24.8782 18.5884 24.9688C18.4444 25.0488 18.343 25.0888 18.2844 25.0888C18.2044 25.0888 18.1377 25.0595 18.0844 25.0008C18.0364 24.9422 18.0124 24.8675 18.0124 24.7768C18.0124 24.6968 18.0337 24.6275 18.0764 24.5688C18.1244 24.5048 18.199 24.4435 18.3004 24.3848C18.487 24.2835 18.7057 24.2035 18.9564 24.1448C19.207 24.0808 19.4497 24.0488 19.6844 24.0488ZM19.4364 27.5048C19.7297 27.5048 19.9697 27.4062 20.1564 27.2088C20.343 27.0062 20.4364 26.7475 20.4364 26.4328V26.2248H20.2924C19.8764 26.2248 19.5564 26.2435 19.3324 26.2808C19.1084 26.3182 18.9484 26.3822 18.8524 26.4728C18.7564 26.5582 18.7084 26.6835 18.7084 26.8488C18.7084 27.0408 18.7777 27.1982 18.9164 27.3208C19.055 27.4435 19.2284 27.5048 19.4364 27.5048ZM24.4296 24.0488C25.363 24.0488 25.8296 24.5742 25.8296 25.6248V27.7048C25.8296 27.8275 25.7923 27.9235 25.7176 27.9928C25.6483 28.0568 25.5496 28.0888 25.4216 28.0888C25.299 28.0888 25.2003 28.0542 25.1256 27.9848C25.0563 27.9155 25.0216 27.8222 25.0216 27.7048V25.6648C25.0216 25.3342 24.955 25.0915 24.8216 24.9368C24.6936 24.7822 24.491 24.7048 24.2136 24.7048C23.8883 24.7048 23.627 24.8062 23.4296 25.0088C23.2323 25.2115 23.1336 25.4835 23.1336 25.8248V27.7048C23.1336 27.8222 23.0963 27.9155 23.0216 27.9848C22.9523 28.0542 22.8563 28.0888 22.7336 28.0888C22.611 28.0888 22.5123 28.0542 22.4376 27.9848C22.363 27.9155 22.3256 27.8222 22.3256 27.7048V24.4488C22.3256 24.3368 22.363 24.2462 22.4376 24.1768C22.5176 24.1022 22.6163 24.0648 22.7336 24.0648C22.851 24.0648 22.9443 24.0995 23.0136 24.1688C23.083 24.2382 23.1176 24.3288 23.1176 24.4408V24.7688C23.2456 24.5342 23.4243 24.3555 23.6536 24.2328C23.883 24.1102 24.1416 24.0488 24.4296 24.0488ZM29.823 27.0568C29.8977 27.0568 29.959 27.0888 30.007 27.1528C30.055 27.2115 30.079 27.2862 30.079 27.3768C30.079 27.4515 30.0577 27.5208 30.015 27.5848C29.9777 27.6435 29.911 27.7048 29.815 27.7688C29.6763 27.8595 29.5163 27.9342 29.335 27.9928C29.1537 28.0515 28.9697 28.0862 28.783 28.0968L28.743 28.4008C28.8177 28.3848 28.8843 28.3768 28.943 28.3768C29.1083 28.3768 29.247 28.4248 29.359 28.5208C29.4763 28.6168 29.535 28.7528 29.535 28.9288C29.535 29.1262 29.4497 29.2862 29.279 29.4088C29.1083 29.5368 28.8657 29.6008 28.551 29.6008C28.343 29.6008 28.159 29.5715 27.999 29.5128C27.903 29.4755 27.855 29.4088 27.855 29.3128C27.855 29.2488 27.8763 29.1955 27.919 29.1528C27.967 29.1102 28.0283 29.0995 28.103 29.1208C28.263 29.1635 28.4123 29.1848 28.551 29.1848C28.6897 29.1848 28.7963 29.1635 28.871 29.1208C28.9457 29.0782 28.983 29.0142 28.983 28.9288C28.983 28.8648 28.9617 28.8142 28.919 28.7768C28.8817 28.7448 28.8257 28.7288 28.751 28.7288C28.6977 28.7288 28.6257 28.7395 28.535 28.7608C28.4443 28.7822 28.3883 28.7928 28.367 28.7928C28.3243 28.7928 28.2843 28.7768 28.247 28.7448C28.215 28.7182 28.2017 28.6808 28.207 28.6328L28.271 28.0808C27.791 28.0062 27.4097 27.7928 27.127 27.4408C26.8497 27.0888 26.711 26.6408 26.711 26.0968C26.711 25.6915 26.791 25.3342 26.951 25.0248C27.1163 24.7155 27.3457 24.4755 27.639 24.3048C27.9323 24.1342 28.2683 24.0488 28.647 24.0488C28.8497 24.0488 29.0523 24.0782 29.255 24.1368C29.463 24.1955 29.647 24.2755 29.807 24.3768C29.9777 24.4942 30.063 24.6302 30.063 24.7848C30.063 24.8755 30.039 24.9528 29.991 25.0168C29.943 25.0755 29.8817 25.1048 29.807 25.1048C29.759 25.1048 29.711 25.0942 29.663 25.0728C29.615 25.0462 29.5537 25.0088 29.479 24.9608C29.3457 24.8755 29.2203 24.8115 29.103 24.7688C28.991 24.7208 28.855 24.6968 28.695 24.6968C28.3323 24.6968 28.0497 24.8195 27.847 25.0648C27.6497 25.3102 27.551 25.6515 27.551 26.0888C27.551 26.5262 27.6497 26.8648 27.847 27.1048C28.0443 27.3395 28.3243 27.4568 28.687 27.4568C28.847 27.4568 28.9883 27.4328 29.111 27.3848C29.2337 27.3368 29.359 27.2728 29.487 27.1928C29.5457 27.1555 29.6043 27.1235 29.663 27.0968C29.7217 27.0702 29.775 27.0568 29.823 27.0568ZM32.4422 24.0488C32.9595 24.0488 33.3435 24.1795 33.5942 24.4408C33.8502 24.7022 33.9782 25.0995 33.9782 25.6328V27.7048C33.9782 27.8275 33.9435 27.9235 33.8742 27.9928C33.8049 28.0568 33.7089 28.0888 33.5862 28.0888C33.4689 28.0888 33.3755 28.0542 33.3062 27.9848C33.2369 27.9155 33.2022 27.8222 33.2022 27.7048V27.4088C33.1009 27.6328 32.9489 27.8062 32.7462 27.9288C32.5489 28.0462 32.3169 28.1048 32.0502 28.1048C31.7942 28.1048 31.5595 28.0542 31.3462 27.9528C31.1382 27.8462 30.9729 27.7022 30.8502 27.5208C30.7275 27.3395 30.6662 27.1342 30.6662 26.9048C30.6609 26.6168 30.7329 26.3928 30.8822 26.2328C31.0315 26.0675 31.2742 25.9502 31.6102 25.8808C31.9462 25.8062 32.4129 25.7688 33.0102 25.7688H33.1942V25.5368C33.1942 25.2382 33.1329 25.0222 33.0102 24.8888C32.8875 24.7555 32.6902 24.6888 32.4182 24.6888C32.2315 24.6888 32.0555 24.7128 31.8902 24.7608C31.7249 24.8088 31.5435 24.8782 31.3462 24.9688C31.2022 25.0488 31.1009 25.0888 31.0422 25.0888C30.9622 25.0888 30.8955 25.0595 30.8422 25.0008C30.7942 24.9422 30.7702 24.8675 30.7702 24.7768C30.7702 24.6968 30.7915 24.6275 30.8342 24.5688C30.8822 24.5048 30.9569 24.4435 31.0582 24.3848C31.2449 24.2835 31.4635 24.2035 31.7142 24.1448C31.9649 24.0808 32.2075 24.0488 32.4422 24.0488ZM32.1942 27.5048C32.4875 27.5048 32.7275 27.4062 32.9142 27.2088C33.1009 27.0062 33.1942 26.7475 33.1942 26.4328V26.2248H33.0502C32.6342 26.2248 32.3142 26.2435 32.0902 26.2808C31.8662 26.3182 31.7062 26.3822 31.6102 26.4728C31.5142 26.5582 31.4662 26.6835 31.4662 26.8488C31.4662 27.0408 31.5355 27.1982 31.6742 27.3208C31.8129 27.4435 31.9862 27.5048 32.1942 27.5048Z" fill="#DA0175" />
        </svg>
