<svg width="32" height="30" viewBox="0 0 32 30" fill="none" xmlns="http://www.w3.org/2000/svg">
<path fill-rule="evenodd" clip-rule="evenodd" d="M7.05654 6.86759C7.57724 6.39896 8.42146 6.39896 8.94216 6.86759L15.9993 13.2191L23.0565 6.86759C23.5772 6.39896 24.4215 6.39896 24.9422 6.86759C25.4629 7.33621 25.4629 8.09601 24.9422 8.56464L17.885 14.9161L24.9422 21.2676C25.4629 21.7362 25.4629 22.496 24.9422 22.9646C24.4215 23.4333 23.5772 23.4333 23.0565 22.9646L15.9993 16.6132L8.94216 22.9646C8.42146 23.4333 7.57724 23.4333 7.05654 22.9646C6.53584 22.496 6.53584 21.7362 7.05654 21.2676L14.1137 14.9161L7.05654 8.56464C6.53584 8.09601 6.53584 7.33621 7.05654 6.86759Z" fill="#3F3F55"/>

</svg>
